<?xml version="1.0" encoding="UTF-8"?>
<svg xmlns="http://www.w3.org/2000/svg" id="Layer_1" data-name="Layer 1" viewBox="0 0 350 185">
  <defs>
    <style>.cls-1{fill:#cfe0ff;}.cls-2{fill:#d9f0ff;}.cls-3{fill:#ff9f85;}.cls-4{fill:#2a4b9e;}.cls-11,.cls-19,.cls-5{fill:#fff;}.cls-12,.cls-13,.cls-6{fill:#91b2e2;}.cls-7{fill:#42bc99;}.cls-8{fill:#ff9880;}.cls-9{fill:#ffd38d;}.cls-10{opacity:0.33;}.cls-11,.cls-15{opacity:0.6;}.cls-12,.cls-14{opacity:0.42;}.cls-13{opacity:0.81;}.cls-16{fill:#57dd97;}.cls-17{fill:#d65f47;}.cls-18{fill:#c43d51;opacity:0.31;}.cls-19{opacity:0.69;}</style>
  </defs>
  <title>gravity-more-new-blogs</title>
  <rect class="cls-1" width="350" height="185"></rect>
  <path class="cls-1" d="M253.59,144.88S242.52,155.49,223.32,165l-2.18,1.06a142.75,142.75,0,0,1-31.8,10.85,130.58,130.58,0,0,1-15.68,2.38,133.25,133.25,0,0,1-37.28-1.87,158.85,158.85,0,0,1-17.19-4.23q-3.63-1.11-7.16-2.47a88.69,88.69,0,0,1-8.83-3.93,58.82,58.82,0,0,1-16.72-12.38c-.53-.58-1-1.18-1.56-1.79a41.9,41.9,0,0,1-2.78-3.79c-4.92-7.64-5.56-15-4.42-23.49.26-1.93.61-3.91,1-6C81.19,107.1,71.65,95.05,66.94,84c-5.69-13.34-7-27.1-1.57-40.74,14.5-36.38,50.2-48.22,85.85-29.06h0q3.44,1.84,6.86,4.08a45.54,45.54,0,0,0,20.69,7.57h0c28,2.8,52.54-21.43,91.83,4.55C319.21,62.54,253.59,144.88,253.59,144.88Z"></path>
  <path class="cls-2" d="M127.77,16.28S86,9.51,94.12,40.88,71.45,57.87,81,100s12.7,52.2,53.89,63,78.47,3.36,109.22-30.26S274,49.11,261.19,38.08s-36.68,9.86-55.32,4.83S167.51,4.38,127.77,16.28Z"></path>
  <path class="cls-3" d="M182.85,51.94s13.73-1.2,14.45,3.86-2.29,8.79-5.9,9.69-6,1.45-6,1.45l.18,3.25s9.21-1.63,10.3,2c2.19,7.33-3.1,9.92-9.39,9.73a25.22,25.22,0,0,1,7.09.56c4,.88,3.56,9.32.89,11.34a4.73,4.73,0,0,1-3.46.66c-1.2-.16-2.37-.52-3.58-.56-.22,1.41,1.26,2.52,2.66,2.8,1.77.35,4.19.06,5.76,1.07,2.48,1.61,1.89,5.77,1.13,8.13-1,3.07-2.47,2.79-5.36,2.82-.95,0-12.9-.25-12.9-.24S182.85,51.94,182.85,51.94Z"></path>
  <rect class="cls-4" x="116.46" y="6.71" width="74.07" height="131.35" rx="3.78"></rect>
  <rect class="cls-2" x="118.9" y="12.53" width="69.2" height="121.78" rx="3.78"></rect>
  <rect class="cls-5" x="148.63" y="9.34" width="12.89" height="0.69" rx="0.26"></rect>
  <rect class="cls-6" x="126.82" y="72.87" width="15.77" height="12.24" rx="0.79"></rect>
  <path class="cls-5" d="M137.54,77.17h-1.16a2.59,2.59,0,0,0-.53-1.72,1.51,1.51,0,0,0-1.14-.46c-1.79,0-1.85,2.16-1.85,2.18h-1a.58.58,0,0,0-.6.71l.16.56,0,.09.42,1.51,0,.09.39,1.41a.62.62,0,0,0,.6.42h3.62a.62.62,0,0,0,.6-.42l.39-1.41,0-.09.41-1.51,0-.09.16-.56A.58.58,0,0,0,137.54,77.17Zm-2.83-2a1.27,1.27,0,0,1,1,.4,2.42,2.42,0,0,1,.48,1.59H133C133.05,77.08,133.11,75.18,134.71,75.18Zm1.55,2.12L136,78.44H133.2L133,77.3ZM137.4,80h-1.59l.3-1.51h1.71L137.41,80Zm-1.69,0h-2.19l-.3-1.51H136Zm-4.15-1.63-.16-.57a.38.38,0,0,1,.07-.34.51.51,0,0,1,.41-.2h1l.23,1.14h-1.54Zm0,.12h1.53l.29,1.51H132v0Zm1.3,3.3a.47.47,0,0,1-.47-.33L132,80.13h1.4l.34,1.7Zm1,0-.34-1.7h2.15l-.33,1.7ZM137,81.5a.48.48,0,0,1-.47.33h-1.07l.34-1.7h1.58Zm1-3.66-.15.57v0h-1.73l.23-1.14h1.19a.51.51,0,0,1,.4.2A.35.35,0,0,1,138,77.84Z"></path>
  <rect class="cls-6" x="147.63" y="74.99" width="20.92" height="1.52" rx="0.76"></rect>
  <rect class="cls-6" x="147.63" y="78.75" width="11.73" height="1.52" rx="0.76"></rect>
  <path class="cls-6" d="M175.76,82.53a.24.24,0,0,0-.21-.24,3.2,3.2,0,0,1-.81-.2,2.76,2.76,0,0,1-.66-.35.24.24,0,0,1-.07-.31l.21-.36a.32.32,0,0,1,.11-.12.3.3,0,0,1,.16,0,.36.36,0,0,1,.21,0l.27.15.35.16.16.06a.23.23,0,0,0,.29-.23l0-1.57a.25.25,0,0,0-.18-.24c-.16,0-.31-.08-.47-.12a2,2,0,0,1-.59-.29,1.48,1.48,0,0,1-.45-.48,2,2,0,0,1-.21-.76,2,2,0,0,1,.09-.69,1.83,1.83,0,0,1,.36-.62,2,2,0,0,1,.62-.48,2.29,2.29,0,0,1,.67-.21.25.25,0,0,0,.21-.23V75a.34.34,0,0,1,.08-.21.3.3,0,0,1,.2-.1h.16a.23.23,0,0,1,.25.24v.43a.23.23,0,0,0,.2.23,2.47,2.47,0,0,1,.65.19,3,3,0,0,1,.47.27.24.24,0,0,1,.07.31l-.14.25a.58.58,0,0,1-.12.14.2.2,0,0,1-.15.06l-.17,0-.22-.09-.27-.1h0a.24.24,0,0,0-.31.22v1.41a.23.23,0,0,0,.18.23l.48.13a2.74,2.74,0,0,1,.6.27,1.57,1.57,0,0,1,.45.44,1.48,1.48,0,0,1,.21.7,2.4,2.4,0,0,1-.08.81,2,2,0,0,1-.37.68,2,2,0,0,1-.63.51,2.41,2.41,0,0,1-.7.25.24.24,0,0,0-.19.23V83a.32.32,0,0,1-.08.2.27.27,0,0,1-.2.11H176a.23.23,0,0,1-.25-.24Zm-.82-5.08a.75.75,0,0,0,.09.3.73.73,0,0,0,.18.22,1.28,1.28,0,0,0,.26.16h0a.24.24,0,0,0,.33-.21v-1a.25.25,0,0,0-.33-.23l-.09,0a.84.84,0,0,0-.28.2.6.6,0,0,0-.14.26A.92.92,0,0,0,174.94,77.45Zm2.43,2.81a.82.82,0,0,0-.08-.3.67.67,0,0,0-.19-.22,1.06,1.06,0,0,0-.28-.15h0a.24.24,0,0,0-.32.22V81a.24.24,0,0,0,.33.22,1,1,0,0,0,.37-.27A.93.93,0,0,0,177.37,80.26Z"></path>
  <rect class="cls-7" x="126.82" y="96.23" width="51.6" height="12.95" rx="6.47"></rect>
  <path class="cls-5" d="M152,103.44V105h-.85V100.5h1.48a2.69,2.69,0,0,1,.79.11,1.41,1.41,0,0,1,.54.3,1,1,0,0,1,.32.45,1.59,1.59,0,0,1,.11.59,1.64,1.64,0,0,1-.11.6,1.18,1.18,0,0,1-.33.47,1.55,1.55,0,0,1-.55.31,2.55,2.55,0,0,1-.77.11Zm0-.66h.63a1.2,1.2,0,0,0,.4-.06.81.81,0,0,0,.29-.16.83.83,0,0,0,.17-.27.93.93,0,0,0,.05-.34.82.82,0,0,0-.05-.33.65.65,0,0,0-.17-.25.68.68,0,0,0-.29-.16,1.2,1.2,0,0,0-.4-.06H152Z"></path>
  <path class="cls-5" d="M158.55,105h-.65a.27.27,0,0,1-.18,0,.28.28,0,0,1-.1-.14l-.34-.92H155.4l-.34.92a.24.24,0,0,1-.1.13.28.28,0,0,1-.18.06h-.65l1.78-4.53h.86Zm-2.93-1.71h1.44l-.55-1.51-.08-.23q0-.14-.09-.3,0,.16-.09.3c0,.09-.05.17-.08.24Z"></path>
  <path class="cls-5" d="M160.46,103.27V105h-.84v-1.76L158,100.5h.74a.35.35,0,0,1,.18,0,.5.5,0,0,1,.1.14l.83,1.51c.05.09.09.18.13.26s.07.16.1.23a1.36,1.36,0,0,1,.09-.23,1.51,1.51,0,0,1,.12-.26l.83-1.51a.31.31,0,0,1,.1-.13.28.28,0,0,1,.18-.06h.74Z"></path>
  <path class="cls-8" d="M146.41,99.7v6a.34.34,0,0,1-.3.37h-7.19a.35.35,0,0,1-.3-.37v-6a.34.34,0,0,1,.3-.37h7.19A.33.33,0,0,1,146.41,99.7Z"></path>
  <path class="cls-9" d="M145.75,99.7v6a.35.35,0,0,1-.3.37h-7.09a.34.34,0,0,1-.3-.37v-6a.33.33,0,0,1,.3-.37h7.09a.34.34,0,0,1,.3.36Z"></path>
  <path class="cls-8" d="M146.55,101.9h-3.3a.87.87,0,0,0-.87.87h0a.86.86,0,0,0,.87.86h3.3a.17.17,0,0,0,.17-.16v-1.41A.17.17,0,0,0,146.55,101.9ZM143.06,103a.18.18,0,1,1,.18-.18A.18.18,0,0,1,143.06,103Z"></path>
  <g class="cls-10">
    <path class="cls-4" d="M121.79,43.77V64.83a2.06,2.06,0,0,1-2.07,2.07h-.82V41.7h.82A2.07,2.07,0,0,1,121.79,43.77Z"></path>
  </g>
  <g class="cls-10">
    <path class="cls-4" d="M185.2,64.83V43.77a2.07,2.07,0,0,1,2.07-2.07h.82V66.9h-.82A2.07,2.07,0,0,1,185.2,64.83Z"></path>
  </g>
  <path class="cls-5" d="M224.34,37.53H187.4a2.07,2.07,0,0,0-2.07,2.07V60.66a2.07,2.07,0,0,0,2.07,2.07h36.94a2.07,2.07,0,0,0,2.07-2.07V39.6A2.06,2.06,0,0,0,224.34,37.53ZM226,60.23a2.07,2.07,0,0,1-2.07,2.07h-36.1a2.07,2.07,0,0,1-2.07-2.07V40A2.06,2.06,0,0,1,187.82,38h36.1A2.06,2.06,0,0,1,226,40Z"></path>
  <rect class="cls-11" x="185.75" y="37.96" width="40.25" height="24.35" rx="2.07"></rect>
  <path class="cls-12" d="M193.24,45.94a1.79,1.79,0,1,1,0-2.66,1.79,1.79,0,0,0,0,2.66Z"></path>
  <path class="cls-13" d="M193.83,44.61a1.76,1.76,0,0,1-.59,1.33,1.79,1.79,0,0,1,0-2.66A1.75,1.75,0,0,1,193.83,44.61Z"></path>
  <path class="cls-6" d="M196.21,44.61a1.79,1.79,0,0,1-3,1.33,1.79,1.79,0,0,0,0-2.66,1.78,1.78,0,0,1,3,1.33Z"></path>
  <rect class="cls-6" x="190.46" y="52.71" width="6.57" height="0.81" rx="0.41"></rect>
  <rect class="cls-6" x="198.39" y="52.71" width="6.57" height="0.81" rx="0.41"></rect>
  <rect class="cls-6" x="206.56" y="52.71" width="6.57" height="0.81" rx="0.41"></rect>
  <rect class="cls-6" x="214.49" y="52.71" width="6.57" height="0.81" rx="0.41"></rect>
  <g class="cls-14">
    <rect class="cls-6" x="190.46" y="56.62" width="14.5" height="0.75" rx="0.38"></rect>
  </g>
  <rect class="cls-6" x="212.67" y="41.87" width="8.63" height="5.47" rx="0.51"></rect>
  <path class="cls-5" d="M214.62,43.56v2.1a.82.82,0,0,1-.82.81h-1.13v-.2h1.13a.61.61,0,0,0,.61-.61v-2.1a.61.61,0,0,0-.61-.62h-1.13v-.2h1.13A.82.82,0,0,1,214.62,43.56Z"></path>
  <path class="cls-5" d="M219.67,43.56v2.1a.61.61,0,0,0,.61.61h1v.2h-1a.82.82,0,0,1-.82-.81v-2.1a.82.82,0,0,1,.82-.82h1v.2h-1A.61.61,0,0,0,219.67,43.56Z"></path>
  <rect class="cls-5" x="214.51" y="44.5" width="5.05" height="0.2"></rect>
  <g class="cls-10">
    <rect class="cls-4" x="129.11" y="36.9" width="50.95" height="34.04" rx="1.73"></rect>
  </g>
  <rect class="cls-4" x="126.45" y="33.11" width="56.27" height="34.04" rx="1.73"></rect>
  <path class="cls-9" d="M136.93,44.27a2.49,2.49,0,1,1,0-3.72,2.5,2.5,0,0,0,0,3.72Z"></path>
  <g class="cls-15">
    <path class="cls-16" d="M137.76,42.41a2.49,2.49,0,0,1-.83,1.86,2.5,2.5,0,0,1,0-3.72A2.49,2.49,0,0,1,137.76,42.41Z"></path>
  </g>
  <path class="cls-7" d="M141.08,42.41a2.49,2.49,0,0,1-4.15,1.86,2.5,2.5,0,0,0,0-3.72,2.49,2.49,0,0,1,4.15,1.86Z"></path>
  <rect class="cls-16" x="133.04" y="53.73" width="9.18" height="1.14" rx="0.43"></rect>
  <rect class="cls-16" x="144.13" y="53.73" width="9.18" height="1.14" rx="0.43"></rect>
  <rect class="cls-16" x="155.54" y="53.73" width="9.18" height="1.14" rx="0.43"></rect>
  <rect class="cls-16" x="166.64" y="53.73" width="9.18" height="1.14" rx="0.43"></rect>
  <rect class="cls-6" x="133.04" y="59.2" width="20.28" height="1.05" rx="0.52"></rect>
  <rect class="cls-9" x="164.1" y="38.58" width="12.06" height="7.65" rx="0.72"></rect>
  <path class="cls-4" d="M166.82,40.94v2.93A1.15,1.15,0,0,1,165.67,45H164.1v-.29h1.57a.86.86,0,0,0,.86-.86V40.94a.87.87,0,0,0-.86-.86H164.1v-.29h1.57A1.16,1.16,0,0,1,166.82,40.94Z"></path>
  <path class="cls-4" d="M173.88,40.94v2.93a.85.85,0,0,0,.86.86h1.42V45h-1.42a1.15,1.15,0,0,1-1.15-1.15V40.94a1.16,1.16,0,0,1,1.15-1.15h1.42v.29h-1.42A.86.86,0,0,0,173.88,40.94Z"></path>
  <rect class="cls-4" x="166.67" y="42.26" width="7.06" height="0.29"></rect>
  <path class="cls-5" d="M255.42,124.64H228.67a.74.74,0,0,0-.76.71v17.93a.74.74,0,0,0,.76.71h26.75a.73.73,0,0,0,.75-.71V125.35A.73.73,0,0,0,255.42,124.64Zm.07,18.06a.74.74,0,0,1-.76.71H229.35a.74.74,0,0,1-.76-.71V125.93a.73.73,0,0,1,.76-.71h25.38a.73.73,0,0,1,.76.71Z"></path>
  <path class="cls-11" d="M255.49,125.93V142.7a.74.74,0,0,1-.76.71H229.35a.74.74,0,0,1-.76-.71V125.93a.73.73,0,0,1,.76-.71h25.38A.73.73,0,0,1,255.49,125.93Z"></path>
  <path class="cls-17" d="M238.54,135.35h7.37a1.72,1.72,0,0,1,1.72,1.72v0a4.64,4.64,0,0,1-4.64,4.64h-1.53a4.64,4.64,0,0,1-4.64-4.64v0a1.72,1.72,0,0,1,1.72-1.72Z"></path>
  <path class="cls-7" d="M239.9,127.79c-2.79-.77-5.16.39-3.89,3.5s5.59,3,6,.67C242,132,242.69,128.57,239.9,127.79Zm-.7.48a.8.8,0,0,1,.85,1.26.8.8,0,0,1-.85-1.26Zm-1.64,3.31c-.6-.12-1-.58-.94-1a1,1,0,0,1,1.26-.63c.61.11,1,.58.94,1A1,1,0,0,1,237.56,131.58Zm2,1.25a.69.69,0,1,1,.88-.66C240.43,132.53,240,132.83,239.55,132.83Z"></path>
  <path class="cls-7" d="M247.22,128.45c-3.27-.76-5.68,2.83-4,4.54,0,0,2.39,2.48,4.64.65S250.49,129.2,247.22,128.45Zm-1.17,1.67a.62.62,0,0,1,.77-.37c.37.07.63.35.58.62s-.4.44-.77.37S246,130.39,246.05,130.12Zm1.36,2.2a1.21,1.21,0,0,1-1.49.72c-.73-.14-1.24-.69-1.13-1.22a1.21,1.21,0,0,1,1.49-.72C247,131.24,247.52,131.78,247.41,132.32Z"></path>
  <path class="cls-4" d="M245.24,130.31l-.08-.19a5.82,5.82,0,0,0-2.95,3.28,4.94,4.94,0,0,0-1-1.93c-1.5-1.77-2.33-1.79-2.36-1.79v.22s.76,0,2.2,1.71a5,5,0,0,1,1.09,3.73l.21,0a5.21,5.21,0,0,0-.06-1.65l.05,0A5.61,5.61,0,0,1,245.24,130.31Z"></path>
  <path class="cls-5" d="M211.91,10H185.16a.73.73,0,0,0-.75.71V28.67a.73.73,0,0,0,.75.71h26.75a.74.74,0,0,0,.76-.71V10.74A.74.74,0,0,0,211.91,10ZM212,28.09a.74.74,0,0,1-.76.71H185.85a.74.74,0,0,1-.76-.71V11.32a.74.74,0,0,1,.76-.71h25.38a.74.74,0,0,1,.76.71Z"></path>
  <path class="cls-11" d="M212,11.32V28.09a.74.74,0,0,1-.76.71H185.85a.74.74,0,0,1-.76-.71V11.32a.74.74,0,0,1,.76-.71h25.38A.74.74,0,0,1,212,11.32Z"></path>
  <rect class="cls-9" x="190.71" y="14.03" width="15.65" height="2.19" rx="1.09"></rect>
  <path class="cls-8" d="M192,16.22H204.8a0,0,0,0,1,0,0v7.85a.47.47,0,0,1-.47.47H192.45a.47.47,0,0,1-.47-.47V16.22A0,0,0,0,1,192,16.22Z"></path>
  <rect class="cls-17" x="195.83" y="17.38" width="4.72" height="0.97" rx="0.48"></rect>
  <path class="cls-5" d="M135.36,9.3H99.91c-.55,0-1,.32-1,.71V27.94c0,.39.45.71,1,.71h35.45c.55,0,1-.32,1-.71V10C136.36,9.62,135.91,9.3,135.36,9.3Zm.09,18.06c0,.4-.44.72-1,.72H100.82c-.55,0-1-.32-1-.72V10.59c0-.39.45-.71,1-.71h33.63c.56,0,1,.32,1,.71Z"></path>
  <path class="cls-11" d="M135.45,10.59V27.36c0,.4-.44.72-1,.72H100.82c-.55,0-1-.32-1-.72V10.59c0-.39.45-.71,1-.71h33.63C135,9.88,135.45,10.2,135.45,10.59Z"></path>
  <rect class="cls-6" x="111.92" y="14.78" width="10.4" height="7.92" rx="0.61"></rect>
  <rect class="cls-5" x="113.1" y="15.69" width="8.04" height="6.12" rx="0.32"></rect>
  <path class="cls-4" d="M105.21,17.27h6.71a0,0,0,0,1,0,0v3a0,0,0,0,1,0,0h-6.71a1.48,1.48,0,0,1-1.48-1.48v0A1.48,1.48,0,0,1,105.21,17.27Z"></path>
  <path class="cls-4" d="M129,17.27h-6.71v2.95H129a1.48,1.48,0,1,0,0-2.95ZM125.86,19a.28.28,0,0,1-.29-.28.29.29,0,0,1,.58,0A.28.28,0,0,1,125.86,19Zm1.23,0a.28.28,0,0,1-.29-.28.29.29,0,0,1,.58,0A.28.28,0,0,1,127.09,19Zm1.23,0a.28.28,0,0,1-.29-.28.29.29,0,1,1,.58,0A.28.28,0,0,1,128.32,19Z"></path>
  <path class="cls-4" d="M119.72,20.74,117.65,19a.59.59,0,0,0,0-.23.57.57,0,0,0-.4-.54V16.31a.18.18,0,1,0-.36,0V18.2a.57.57,0,0,0-.4.54.58.58,0,0,0,.58.58.53.53,0,0,0,.3-.09L119.49,21a.15.15,0,0,0,.11,0,.2.2,0,0,0,.14-.06A.18.18,0,0,0,119.72,20.74Z"></path>
  <rect class="cls-6" x="102.23" y="18.64" width="2.99" height="0.47" rx="0.23"></rect>
  <path class="cls-5" d="M255.92,76.5H206.85a1.41,1.41,0,0,0-1.38,1.44v36.23a1.42,1.42,0,0,0,1.38,1.44h49.07a1.42,1.42,0,0,0,1.39-1.44V77.94A1.41,1.41,0,0,0,255.92,76.5Zm.14,36.49a1.43,1.43,0,0,1-1.39,1.45H208.11a1.42,1.42,0,0,1-1.39-1.45V79.11a1.41,1.41,0,0,1,1.39-1.44h46.56a1.42,1.42,0,0,1,1.39,1.44Z"></path>
  <path class="cls-11" d="M256.06,79.11V113a1.43,1.43,0,0,1-1.39,1.45H208.11a1.42,1.42,0,0,1-1.39-1.45V79.11a1.41,1.41,0,0,1,1.39-1.44h46.56A1.42,1.42,0,0,1,256.06,79.11Z"></path>
  <path class="cls-4" d="M247.78,91a.61.61,0,0,0-.65-.48H231.42a.6.6,0,0,0-.64.48l-1.65,15.7a.58.58,0,0,0,.64.57h19a.58.58,0,0,0,.64-.57Z"></path>
  <path class="cls-7" d="M233.45,85.9a.69.69,0,0,0-.69-.63H215.82a.69.69,0,0,0-.69.63l-1.78,20.64a.69.69,0,0,0,.69.75h20.5a.7.7,0,0,0,.69-.75Z"></path>
  <circle class="cls-4" cx="220.38" cy="89.43" r="0.76"></circle>
  <circle class="cls-4" cx="228.05" cy="89.43" r="0.76"></circle>
  <path class="cls-4" d="M224.29,95.38a3.46,3.46,0,0,1-2.63-1.07c-1.59-1.69-1.42-4.76-1.42-4.89a.14.14,0,0,1,.15-.13.14.14,0,0,1,.13.15s-.17,3.08,1.34,4.68a3.22,3.22,0,0,0,2.43,1,3.1,3.1,0,0,0,2.4-1c1.47-1.6,1.22-4.65,1.22-4.68a.14.14,0,0,1,.13-.15.14.14,0,0,1,.15.13c0,.13.26,3.2-1.3,4.89A3.38,3.38,0,0,1,224.29,95.38Z"></path>
  <circle class="cls-4" cx="243.66" cy="92.48" r="0.76"></circle>
  <circle class="cls-4" cx="235.99" cy="92.48" r="0.76"></circle>
  <path class="cls-4" d="M239.75,86.53a3.46,3.46,0,0,1,2.63,1.07c1.59,1.7,1.42,4.76,1.41,4.89a.12.12,0,0,1-.14.13.13.13,0,0,1-.13-.14s.17-3.08-1.34-4.69a3.21,3.21,0,0,0-2.43-1,3.13,3.13,0,0,0-2.4,1c-1.47,1.6-1.22,4.65-1.22,4.68a.14.14,0,0,1-.13.15.14.14,0,0,1-.15-.12c0-.13-.26-3.2,1.3-4.9A3.38,3.38,0,0,1,239.75,86.53Z"></path>
  <path class="cls-3" d="M220.16,153c-.45-5.48-.9-10.17-1.09-11.43-.48-3.06-.93-4.51-3.39-5.88s-4-1.93-4-3.54S210,127,209.3,125.88c-.39-.6-3-1.57-5.2-2.48h0l-1-.44a6.15,6.15,0,0,1-2-1.16.34.34,0,0,1-.07-.17v0c.07-1-.37-4.46-1.32-5a18.49,18.49,0,0,0-8.13-.86c-1.81.35-4.62,2.26-6.52,3.17h0a3,3,0,0,1-1.69.45h0a.5.5,0,0,1-.19-.11c-.91-.9-5-19.49-6.37-21.24s-2.79-2.11-4.46-1.48-3.88,2.2-3.95,4,.25,10.06,1.26,12.88,4.79,31.26,4.84,31.7h0l-.5-.69-.8-1.13s-.29-.13-.77-.3h0l-.13-.05,0,0c-.25-.09-.54-.19-.86-.28h-.09c-2.46-.76-6.52-1.56-7.35,1.1-1.22,3.89,1.79,7.62,2.25,10.88.25,1.75,1.4,7.5,2.89,13,1.27,4.74,2.79,9.33,4.17,11.1l.48.57a130.58,130.58,0,0,0,15.68-2.38,142.75,142.75,0,0,0,31.8-10.85C220.89,162.09,220.52,157.3,220.16,153Zm-30.42-20.51-.81,7.58-3-8-.06-.17,3.87.41Z"></path>
  <path class="cls-18" d="M178,166.05l-3.51-20.74s-1.15-1.84-2.19-2.19l-1-.35Z"></path>
  <path class="cls-18" d="M185.37,147.27s3.17.44,4,2.74S185.67,151.12,185.37,147.27Z"></path>
  <path class="cls-18" d="M211.06,145.07s3.16.43,4,2.73S211.35,148.91,211.06,145.07Z"></path>
  <path class="cls-18" d="M200,147s3.3,1.95,3,3S199.53,149.08,200,147Z"></path>
  <path class="cls-18" d="M201,121.75s1.25,19,1.44,17.7,1.69-15.9,1.69-15.9Z"></path>
  <path class="cls-18" d="M184,125.26s5.85-3.39,6.14-1.76-.38,9-.38,9l-3.87-.41Z"></path>
  <polygon class="cls-18" points="183.12 119.45 184 125.26 185.66 118.77 183.12 119.45"></polygon>
  <path class="cls-18" d="M212,133.41s-.17,8.06,0,7.63,1.68-6.29,1.68-6.29Z"></path>
  <path class="cls-19" d="M177.85,104.59c-.07.84-3,1.94-4.47.84a1.64,1.64,0,0,1-.25-.22c-1.37-1.44-2.46-6-2.27-6.51s3-1.49,3-1.49l2.05.14c1,.06,1.76,4.91,1.89,6.69A4,4,0,0,1,177.85,104.59Z"></path>
  <path class="cls-5" d="M177.85,104.59c-.07.84-3,1.94-4.47.84a1.64,1.64,0,0,1-.25-.22,10.12,10.12,0,0,1,2.09-.88,8.12,8.12,0,0,1,2.61-.29A4,4,0,0,1,177.85,104.59Z"></path>
  <path class="cls-3" d="M151,138s-1.57,2.46-3.95,5.69h0c-3.06,4.16-7.47,9.6-11.59,12.72a53.22,53.22,0,0,1-7.39,4.71c-2.58,1.4-4.14,2.16-5,4-.49,1-2,4.18-3.88,8.12q-3.63-1.11-7.16-2.47c-9.8-3.77-18.84-9-25.55-16.31,2.6-6.17,5-12.71,5.29-16.42,0-.44.06-.9.1-1.4.59-9.23.91-29.11,3.23-35,2.44-6.22,11.76-34.41,14.65-37.29s6,1.33,6.66,3.77.44,8.44,0,12.21c0,.34-.07.7-.09,1.09a47.66,47.66,0,0,0,.08,5v0c.17,2.57.43,4.73.43,4.73v20.42a21.62,21.62,0,0,1,3.79,13.76,86,86,0,0,0,0,12.66Z"></path>
  <path class="cls-18" d="M120.66,138s.41,6.66,1.3,6.88S143.49,138,143.49,138Z"></path>
  <path class="cls-18" d="M116.32,81.38s-.8,7.12-2.35,9.79-1.11,6.43-1.11,10.21-.06,6.21-.06,6.21l4,4Z"></path>
  <path class="cls-5" d="M141.52,115.26H106.37a1,1,0,0,0-1,1v24.33a1,1,0,0,0,1,1h35.15a1,1,0,0,0,1-1V116.22A1,1,0,0,0,141.52,115.26Zm.1,24.5a1,1,0,0,1-1,1H107.27a1,1,0,0,1-1-1V117a1,1,0,0,1,1-1h33.35a1,1,0,0,1,1,1Z"></path>
  <path class="cls-11" d="M141.62,117v22.75a1,1,0,0,1-1,1H107.27a1,1,0,0,1-1-1V117a1,1,0,0,1,1-1h33.35A1,1,0,0,1,141.62,117Z"></path>
  <rect class="cls-6" x="114.06" y="123.95" width="20.93" height="11.17" rx="0.77"></rect>
  <path class="cls-4" d="M129.38,122.35a2.12,2.12,0,0,0-1.69-.84h-6.33a2.12,2.12,0,0,0-1.69.84l-1.21,1.6h12.13Z"></path>
  <circle class="cls-4" cx="124.71" cy="129.3" r="3.78"></circle>
  <circle class="cls-5" cx="124.71" cy="129.3" r="2.36"></circle>
  <path class="cls-5" d="M275,40.83h-36.6a1,1,0,0,0-1,1v26a1,1,0,0,0,1,1H275a1,1,0,0,0,1-1v-26A1,1,0,0,0,275,40.83Zm.1,26.21a1,1,0,0,1-1,1H239.33a1,1,0,0,1-1-1V42.71a1,1,0,0,1,1-1h34.72a1,1,0,0,1,1,1Z"></path>
  <rect class="cls-11" x="238.29" y="41.67" width="36.8" height="26.4" rx="1.04"></rect>
  <path class="cls-4" d="M259.09,51.61s3.93-1.87,6.45-.29-2.14,5.89-4.91,4.9S259.09,51.61,259.09,51.61Z"></path>
  <path class="cls-6" d="M268.69,56.22a2.25,2.25,0,0,1-.05.22,4.22,4.22,0,0,1-3.5,3.2c-1.36.2-9,.16-11.58.37s-8.36.21-9.22-.37c-.43-.29-.41-1.24-.09-2.31a7.37,7.37,0,0,1,1.66-3c1.5-1.5,3.86,0,6.29-.57s4.36-3.34,4.36-3.34c.5-.54,1.42-1.23,2.12-.6s.11,1.81.66,2.57a2.06,2.06,0,0,0,2.34.66c1.71-.46,2.83-2,3.67-2.79.53-.27.79-.28.79.16a5.18,5.18,0,0,0,.89,1.49C267.88,53.15,269,54.83,268.69,56.22Z"></path>
  <path class="cls-4" d="M268.69,56.22a2.25,2.25,0,0,1-.05.22,4.22,4.22,0,0,1-3.5,3.2c-1.36.2-9,.16-11.58.37s-8.36.21-9.22-.37c-.43-.29-.41-1.24-.09-2.31a21.24,21.24,0,0,1,4.31.61,53.43,53.43,0,0,0,14.79.57A8.31,8.31,0,0,0,268.69,56.22Z"></path>
  <path class="cls-4" d="M249.66,53.55c-.24-.12-.46.25-.21.37a2.34,2.34,0,0,1,1.09,1.65.22.22,0,0,0,.42-.12A2.78,2.78,0,0,0,249.66,53.55Z"></path>
  <path class="cls-4" d="M251.56,53.77c-.28,0-.28.44,0,.43a1.22,1.22,0,0,1,1.44,1c0,.27.45.28.43,0A1.64,1.64,0,0,0,251.56,53.77Z"></path>
  <path class="cls-4" d="M253.43,53.09c-.27-.05-.38.36-.11.41a1.44,1.44,0,0,1,1.3,1.11c0,.27.46.15.42-.12A1.85,1.85,0,0,0,253.43,53.09Z"></path>
  <path class="cls-4" d="M257.51,51.41a1.44,1.44,0,0,0-1.35-.22.2.2,0,0,0-.18,0,.65.65,0,0,0-.3.13,2.63,2.63,0,0,0-1.72-1.2c-.59-.09-.7.45-.71.94-.06,1.58,1.48,1.37,2.49.79a1.39,1.39,0,0,0,.83,1.24c.44.18,1.22.16,1.48-.33S257.85,51.69,257.51,51.41ZM253.67,51c0-1.14,1.36.11,1.68.54C254.65,51.92,253.69,52.14,253.67,51Zm3.21,1.68a1,1,0,0,1-.72-1v0c.47-.14,1-.17,1.28.31S257.45,52.84,256.88,52.7Z"></path>
  <path class="cls-5" d="M103.92,78.53H62.63a1.19,1.19,0,0,0-1.17,1.2v30.13a1.19,1.19,0,0,0,1.17,1.2h41.29a1.19,1.19,0,0,0,1.17-1.2V79.73A1.19,1.19,0,0,0,103.92,78.53Zm.11,30.36a1.18,1.18,0,0,1-1.17,1.2H63.69a1.18,1.18,0,0,1-1.17-1.2V80.71a1.18,1.18,0,0,1,1.17-1.2h39.17a1.18,1.18,0,0,1,1.17,1.2Z"></path>
  <path class="cls-11" d="M104,80.71v28.18a1.18,1.18,0,0,1-1.17,1.2H63.69a1.18,1.18,0,0,1-1.17-1.2V80.71a1.18,1.18,0,0,1,1.17-1.2h39.17A1.18,1.18,0,0,1,104,80.71Z"></path>
  <path class="cls-17" d="M85.51,85.81s9.07,0,9.3.72,2.1,18.57,1.47,18.8-3.57.54-4.11-.54-2.1-10-2.41-10-1.17,10.14-1.86,10.14-3.52.31-3.74-.77S84,86.5,85.51,85.81Z"></path>
  <path class="cls-9" d="M84.76,84.16a7.17,7.17,0,0,0-3.2-.5c-.26,1.27-1.73,1.15-1.73,1.15s-1.47.12-1.72-1.15a7.14,7.14,0,0,0-3.2.5c-.91.69-5,4.56-4.76,5s2.54,3.76,2.83,3.6a8.94,8.94,0,0,0,1-1,.23.23,0,0,1,.4.16,59.19,59.19,0,0,1-.33,7.52c-.41,2.5-.41,6.64,0,6.52a10.12,10.12,0,0,1,3.24-.19,8.54,8.54,0,0,0,2.46,0,8.62,8.62,0,0,0,2.47,0,10.15,10.15,0,0,1,3.24.19c.45.12.45-4,0-6.52a59.19,59.19,0,0,1-.33-7.52.23.23,0,0,1,.4-.16,7.58,7.58,0,0,0,1,1c.29.16,2.62-3.18,2.83-3.6S85.66,84.85,84.76,84.16Z"></path>
  <path class="cls-8" d="M74.42,91.89S75.35,94,79.62,94s5.63-2.06,5.63-2.06V94.8a10.53,10.53,0,0,1-5.42,1.68,10.36,10.36,0,0,1-5.41-1.72Z"></path>
  <path class="cls-18" d="M147.09,143.71c-3.06,4.16-7.47,9.6-11.59,12.72-7.33,5.55-10.88,5.55-12.43,8.66-.49,1-2,4.18-3.88,8.12q-3.63-1.11-7.16-2.47a88.69,88.69,0,0,1-8.83-3.93c-.07-.26-.15-.51-.23-.77-1.94-6.07,7.38-7.71,14.73-4.22S146.77,144,147.09,143.71Z"></path>
  <path class="cls-5" d="M121.6,37.53H84.65a2.07,2.07,0,0,0-2.07,2.07V60.66a2.07,2.07,0,0,0,2.07,2.07H121.6a2.07,2.07,0,0,0,2.07-2.07V39.6A2.07,2.07,0,0,0,121.6,37.53Zm1.65,22.7a2.07,2.07,0,0,1-2.07,2.07H85.07A2.07,2.07,0,0,1,83,60.23V40A2.07,2.07,0,0,1,85.07,38h36.11A2.07,2.07,0,0,1,123.25,40Z"></path>
  <rect class="cls-11" x="83" y="37.96" width="40.25" height="24.35" rx="2.07"></rect>
  <path class="cls-12" d="M90.49,45.94a1.76,1.76,0,0,1-1.18.45,1.79,1.79,0,1,1,1.18-3.11,1.79,1.79,0,0,0,0,2.66Z"></path>
  <path class="cls-13" d="M91.09,44.61a1.77,1.77,0,0,1-.6,1.33,1.79,1.79,0,0,1,0-2.66A1.75,1.75,0,0,1,91.09,44.61Z"></path>
  <path class="cls-6" d="M93.46,44.61a1.78,1.78,0,0,1-1.78,1.78,1.81,1.81,0,0,1-1.19-.45,1.77,1.77,0,0,0,0-2.66,1.82,1.82,0,0,1,1.19-.46A1.78,1.78,0,0,1,93.46,44.61Z"></path>
  <rect class="cls-6" x="87.71" y="52.71" width="6.57" height="0.81" rx="0.41"></rect>
  <rect class="cls-6" x="95.65" y="52.71" width="6.57" height="0.81" rx="0.41"></rect>
  <rect class="cls-6" x="103.81" y="52.71" width="6.57" height="0.81" rx="0.41"></rect>
  <rect class="cls-6" x="111.75" y="52.71" width="6.57" height="0.81" rx="0.41"></rect>
  <g class="cls-14">
    <rect class="cls-6" x="87.71" y="56.62" width="14.5" height="0.75" rx="0.38"></rect>
  </g>
  <rect class="cls-6" x="109.93" y="41.87" width="8.63" height="5.47" rx="0.51"></rect>
  <path class="cls-5" d="M111.87,43.56v2.1a.82.82,0,0,1-.82.81h-1.12v-.2h1.12a.62.62,0,0,0,.62-.61v-2.1a.62.62,0,0,0-.62-.62h-1.12v-.2h1.12A.82.82,0,0,1,111.87,43.56Z"></path>
  <path class="cls-5" d="M116.92,43.56v2.1a.62.62,0,0,0,.62.61h1v.2h-1a.82.82,0,0,1-.82-.81v-2.1a.82.82,0,0,1,.82-.82h1v.2h-1A.62.62,0,0,0,116.92,43.56Z"></path>
  <rect class="cls-5" x="111.77" y="44.5" width="5.05" height="0.2"></rect>
</svg>
